<svg xmlns="http://www.w3.org/2000/svg" viewBox="0 0 36 44" fill="none">
  <defs>
    <clipPath id="fc"><path d="M18,2 C18,2 32,12 33,22 C34,31 27,38 18,38 C9,38 2,31 3,22 C4,12 18,2 18,2Z"/></clipPath>
  </defs>
  <path d="M18,2 C18,2 32,12 33,22 C34,31 27,38 18,38 C9,38 2,31 3,22 C4,12 18,2 18,2Z" fill="#C8D8B8"/>
  <g clip-path="url(#fc)">
    <rect x="2" y="2" width="32" height="36" fill="#B8C8A0"/>
    <polygon points="2,28 10,16 18,22 26,12 34,20 34,28" fill="#4A7A4A" opacity="0.7"/>
    <rect x="13" y="24" width="10" height="8" fill="#D4C890"/>
    <polygon points="10,25 18,19 26,25" fill="#7A4A20"/>
    <rect x="16" y="27" width="4" height="5" fill="#C9A84C" opacity="0.8"/>
  </g>
  <path d="M18,2 C18,2 32,12 33,22 C34,31 27,38 18,38 C9,38 2,31 3,22 C4,12 18,2 18,2Z" fill="none" stroke="#C9A84C" stroke-width="1.5"/>
  <path d="M18,2 C15,7 8,14 6,21" fill="none" stroke="#C9A84C" stroke-width="1" opacity="0.6"/>
  <path d="M18,2 C21,7 28,14 30,21" fill="none" stroke="#C9A84C" stroke-width="1" opacity="0.6"/>
  <path d="M18,1 C17,1.5 16,2 18,2 C20,2 19,1.5 18,1Z" fill="#2D6B2D"/>
</svg>