<svg xmlns="http://www.w3.org/2000/svg" viewBox="0 0 36 44" fill="none">
  <defs>
    <linearGradient id="fsky" x1="0" y1="0" x2="0" y2="1">
      <stop offset="0%" stop-color="#C8D8C0"/>
      <stop offset="100%" stop-color="#A8C4A0"/>
    </linearGradient>
    <clipPath id="fc">
      <path d="M18,3 C18,3 31,13 32,22 C33,30 27.5,37 18,37 C8.5,37 3,30 4,22 C5,13 18,3 18,3Z"/>
    </clipPath>
  </defs>
  <path d="M18,2.5 C18,2.5 32,12.5 33,22 C34,30.5 28,38 18,38 C8,38 2,30.5 3,22 C4,12.5 18,2.5 18,2.5Z" fill="#C9A84C" opacity="0.2"/>
  <path d="M18,3 C18,3 31,13 32,22 C33,30 27.5,37 18,37 C8.5,37 3,30 4,22 C5,13 18,3 18,3Z" fill="#D4C8A0"/>
  <g clip-path="url(#fc)">
    <rect x="3" y="3" width="30" height="34" fill="url(#fsky)"/>
    <polygon points="3,24 9,16 14,20 18,14 22,18 27,15 33,22 33,26 3,26" fill="#8AA88A" opacity="0.45"/>
    <polygon points="3,29 8,21 13,25 18,19 23,23 28,20 33,27 33,31 3,31" fill="#5A7C5A" opacity="0.8"/>
    <polygon points="5,31 7.5,23 10,31" fill="#2D5A2D"/>
    <polygon points="10,31 12.5,25 15,31" fill="#2D5A2D"/>
    <polygon points="23,31 25.5,25 28,31" fill="#2D5A2D"/>
    <polygon points="28,31 30,25 32,31" fill="#2D5A2D"/>
    <rect x="14" y="27" width="8" height="5" fill="#D4C8A0"/>
    <polygon points="13,28 18,23 23,28" fill="#8B5C2A"/>
    <rect x="16.5" y="28.5" width="3" height="3.5" fill="#C9A84C" opacity="0.9"/>
    <ellipse cx="18" cy="35" rx="9" ry="2" fill="#A0B8C0" opacity="0.45"/>
  </g>
  <path d="M18,3 C18,3 31,13 32,22 C33,30 27.5,37 18,37 C8.5,37 3,30 4,22 C5,13 18,3 18,3Z" fill="none" stroke="#C9A84C" stroke-width="1.2"/>
  <path d="M18,3 C14.5,9 8,16 6.5,23" fill="none" stroke="#C9A84C" stroke-width="0.75" opacity="0.65"/>
  <path d="M18,3 C21.5,9 28,16 29.5,23" fill="none" stroke="#C9A84C" stroke-width="0.75" opacity="0.65"/>
  <path d="M18,3 C15.5,8 10,14 9,21" fill="none" stroke="#C9A84C" stroke-width="0.5" opacity="0.4"/>
  <path d="M18,3 C20.5,8 26,14 27,21" fill="none" stroke="#C9A84C" stroke-width="0.5" opacity="0.4"/>
  <path d="M18,0.5 C16.5,2 16,3 18,3 C20,3 19.5,2 18,0.5Z" fill="#2D6B2D"/>
  <line x1="18" y1="0.5" x2="18" y2="3" stroke="#1A4A1A" stroke-width="0.5"/>
</svg>
