<svg xmlns="http://www.w3.org/2000/svg" viewBox="0 0 36 44" fill="none">
  <path d="M18 1C18 1 2 14 2 25C2 33.8 9.2 41 18 41C26.8 41 34 33.8 34 25C34 14 18 1 18 1Z" fill="#1A3D2B"/>
  <path d="M18 43C18 43 16 41 18 41C20 41 18 43 18 43Z" fill="#1A3D2B"/>
  <rect x="7" y="20" width="22" height="14" rx="1" fill="#2E5C40"/>
  <polygon points="18,11 8,21 28,21" fill="#4A8C5C"/>
  <polygon points="13,15 7,21 19,21" fill="#3A7D44"/>
  <polygon points="22,17 16,21 28,21" fill="#3A7D44"/>
  <rect x="14" y="27" width="4" height="7" rx="1" fill="#C9A84C"/>
  <rect x="9" y="23" width="5" height="4" rx="0.5" fill="#9FD0E8" opacity=".7"/>
  <rect x="22" y="23" width="5" height="4" rx="0.5" fill="#9FD0E8" opacity=".7"/>
  <circle cx="18" cy="9" r="2" fill="#C9A84C" opacity=".8"/>
</svg>
