<svg xmlns="http://www.w3.org/2000/svg" width="400" height="260" viewBox="0 0 400 260">
  <defs>
    <linearGradient id="sky10" x1="0" y1="0" x2="0" y2="1"><stop offset="0%" stop-color="#C8E6C9"/><stop offset="100%" stop-color="#A5D6A7"/></linearGradient>
  </defs>
  <rect width="400" height="260" fill="url(#sky10)"/>
  <!-- Forest background -->
  <rect x="0" y="130" width="400" height="130" fill="#2E5C40"/>
  <polygon points="0,130 50,60 100,130" fill="#1A4D2B"/>
  <polygon points="60,130 110,55 160,130" fill="#225A32"/>
  <polygon points="260,130 310,55 360,130" fill="#1A4D2B"/>
  <polygon points="320,130 370,60 400,130" fill="#225A32"/>
  <!-- House -->
  <rect x="140" y="130" width="120" height="80" fill="#F5F0E8"/>
  <polygon points="130,130 200,85 270,130" fill="#8B6914"/>
  <rect x="165" y="165" width="30" height="45" fill="#5C3317"/>
  <rect x="210" y="155" width="35" height="30" rx="2" fill="#87CEEB"/>
  <rect x="160" y="155" width="25" height="25" rx="2" fill="#87CEEB"/>
  <!-- Pool -->
  <ellipse cx="200" cy="225" rx="50" ry="20" fill="#4FC3F7" opacity="0.8"/>
  <text x="200" y="229" text-anchor="middle" font-family="sans-serif" font-size="9" fill="white" font-weight="700">Hồ bơi</text>
  <!-- Label -->
  <rect x="100" y="48" width="200" height="36" rx="6" fill="#1A3D2B" opacity="0.9"/>
  <text x="200" y="63" text-anchor="middle" font-family="sans-serif" font-size="11" fill="white" font-weight="700">Villa 1.156m² · Giáp rừng thông</text>
  <text x="200" y="78" text-anchor="middle" font-family="sans-serif" font-size="10" fill="#C9A84C">2 phòng ngủ · View đồi chè</text>
</svg>
