<svg xmlns="http://www.w3.org/2000/svg" width="400" height="260" viewBox="0 0 400 260">
  <defs>
    <linearGradient id="sky11" x1="0" y1="0" x2="0" y2="1"><stop offset="0%" stop-color="#FFF9C4"/><stop offset="100%" stop-color="#FFE082"/></linearGradient>
    <linearGradient id="wall11" x1="0" y1="0" x2="0" y2="1"><stop offset="0%" stop-color="#FAFAFA"/><stop offset="100%" stop-color="#ECEFF1"/></linearGradient>
  </defs>
  <rect width="400" height="260" fill="url(#sky11)"/>
  <!-- Garden -->
  <rect x="0" y="200" width="400" height="60" fill="#4A8C5C"/>
  <circle cx="50" cy="210" r="25" fill="#3A7D44"/>
  <circle cx="350" cy="210" r="25" fill="#3A7D44"/>
  <circle cx="100" cy="220" r="18" fill="#5CA06A"/>
  <circle cx="300" cy="220" r="18" fill="#5CA06A"/>
  <!-- House modern -->
  <rect x="80" y="115" width="240" height="95" rx="4" fill="url(#wall11)"/>
  <rect x="80" y="105" width="240" height="20" rx="2" fill="#1A3D2B"/>
  <rect x="155" y="160" width="45" height="50" fill="#8D6E63"/>
  <rect x="100" y="130" width="55" height="40" rx="2" fill="#87CEEB" opacity="0.8"/>
  <rect x="245" y="130" width="55" height="40" rx="2" fill="#87CEEB" opacity="0.8"/>
  <!-- Driveway -->
  <polygon points="160,210 240,210 260,260 140,260" fill="#D4C5A0"/>
  <!-- Label -->
  <rect x="105" y="55" width="190" height="46" rx="6" fill="#1A3D2B" opacity="0.9"/>
  <text x="200" y="74" text-anchor="middle" font-family="sans-serif" font-size="12" fill="white" font-weight="700">Nhà nghỉ dưỡng 338m²</text>
  <text x="200" y="91" text-anchor="middle" font-family="sans-serif" font-size="11" fill="#C9A84C">2,1 tỷ · Mặt tiền 10m · Nam Ban</text>
</svg>
