<svg xmlns="http://www.w3.org/2000/svg" width="800" height="530" viewBox="0 0 800 530">
  <defs>
    <linearGradient id="sky" x1="0" y1="0" x2="0" y2="1"><stop offset="0%" stop-color="#FF9B6A"/><stop offset="40%" stop-color="#FFCBA4"/><stop offset="100%" stop-color="#7BC8E8"/></linearGradient>
    <linearGradient id="mtn" x1="0" y1="0" x2="0" y2="1"><stop offset="0%" stop-color="#1B4332"/><stop offset="100%" stop-color="#0D2B1C"/></linearGradient>
    <linearGradient id="mtn2" x1="0" y1="0" x2="0" y2="1"><stop offset="0%" stop-color="#2D6A4F"/><stop offset="100%" stop-color="#1B4332"/></linearGradient>
    <linearGradient id="ov" x1="0" y1="1" x2="0" y2="0"><stop offset="0%" stop-color="rgba(0,0,0,0.7)"/><stop offset="45%" stop-color="rgba(0,0,0,0.15)"/><stop offset="100%" stop-color="rgba(0,0,0,0)"/></linearGradient>
  </defs>
  <rect width="800" height="530" fill="url(#sky)"/>
  <ellipse cx="400" cy="100" rx="60" ry="18" fill="white" opacity=".6"/>
  <ellipse cx="180" cy="120" rx="90" ry="25" fill="white" opacity=".5"/>
  <!-- mountains -->
  <polygon points="0,320 150,150 300,280 0,530" fill="url(#mtn)" opacity=".8"/>
  <polygon points="200,350 400,120 600,280 800,200 800,530 0,530" fill="url(#mtn2)"/>
  <polygon points="500,320 650,160 800,240 800,530 400,530" fill="#40916C" opacity=".7"/>
  <!-- valley mist -->
  <ellipse cx="400" cy="380" rx="350" ry="60" fill="white" opacity=".12"/>
  <!-- house silhouette -->
  <rect x="330" y="330" width="140" height="80" fill="#0D2B1C"/>
  <polygon points="290,330 400,260 510,330" fill="#0D2B1C"/>
  <rect x="370" y="370" width="35" height="40" fill="#7BC8E8" opacity=".5"/>
  <rect x="340" y="350" width="28" height="22" fill="#7BC8E8" opacity=".4"/>
  <rect x="435" y="350" width="28" height="22" fill="#7BC8E8" opacity=".4"/>
  <!-- trees -->
  <g fill="#1B4332"><ellipse cx="290" cy="395" rx="22" ry="36"/><rect x="284" y="429" width="12" height="22" fill="#5C3D0F"/>
  <ellipse cx="520" cy="390" rx="24" ry="38"/><rect x="514" y="426" width="12" height="22" fill="#5C3D0F"/>
  <ellipse cx="240" cy="420" rx="18" ry="28"/><ellipse cx="560" cy="415" rx="18" ry="28"/></g>
  <rect width="800" height="530" fill="url(#ov)"/>
  <rect x="0" y="0" width="130" height="38" fill="#C9A84C" opacity=".95"/>
  <text x="16" y="25" font-family="Arial" font-size="14" font-weight="700" fill="white">Nổi Bật</text>
  <text x="30" y="460" font-family="Arial" font-size="22" font-weight="800" fill="white">Lô A17 – 959 m²</text>
  <text x="30" y="490" font-family="Arial" font-size="14" fill="rgba(255,255,255,0.85)">📍 Khu A · Nam Ban Villas</text>
  <text x="30" y="515" font-family="Arial" font-size="13" fill="rgba(255,255,255,0.7)">View đồi 360° · Lô lớn nhất dự án</text>
</svg>
