<svg xmlns="http://www.w3.org/2000/svg" width="800" height="530" viewBox="0 0 800 530">
  <defs>
    <linearGradient id="sky" x1="0" y1="0" x2="0" y2="1"><stop offset="0%" stop-color="#E8F4FB"/><stop offset="100%" stop-color="#C5E8F7"/></linearGradient>
    <linearGradient id="g" x1="0" y1="0" x2="0" y2="1"><stop offset="0%" stop-color="#74C69D"/><stop offset="100%" stop-color="#52B788"/></linearGradient>
    <linearGradient id="ov" x1="0" y1="1" x2="0" y2="0"><stop offset="0%" stop-color="rgba(0,0,0,0.6)"/><stop offset="40%" stop-color="rgba(0,0,0,0.05)"/><stop offset="100%" stop-color="rgba(0,0,0,0)"/></linearGradient>
  </defs>
  <rect width="800" height="530" fill="url(#sky)"/>
  <ellipse cx="200" cy="80" rx="100" ry="30" fill="white" opacity=".7"/>
  <ellipse cx="600" cy="70" rx="120" ry="35" fill="white" opacity=".65"/>
  <path d="M0 350 Q300 280 600 310 Q750 290 800 310 L800 530 L0 530Z" fill="#2D6A4F"/>
  <rect x="0" y="400" width="800" height="130" fill="url(#g)"/>
  <!-- herb garden rows -->
  <g fill="#1B4332" opacity=".8">
    <ellipse cx="100" cy="430" rx="12" ry="18"/><ellipse cx="130" cy="425" rx="10" ry="15"/>
    <ellipse cx="160" cy="432" rx="11" ry="17"/><ellipse cx="190" cy="426" rx="10" ry="16"/>
    <ellipse cx="220" cy="433" rx="12" ry="18"/>
  </g>
  <g fill="#40916C" opacity=".8">
    <ellipse cx="330" cy="428" rx="14" ry="20"/><ellipse cx="365" cy="422" rx="12" ry="18"/>
    <ellipse cx="400" cy="429" rx="13" ry="19"/><ellipse cx="435" cy="423" rx="12" ry="17"/>
  </g>
  <!-- villa side view -->
  <rect x="480" y="250" width="280" height="180" fill="white" opacity=".92"/>
  <polygon points="460,250 620,170 780,250" fill="#2C2C2C"/>
  <rect x="510" y="280" width="55" height="45" rx="3" fill="#87CEEB" opacity=".8"/>
  <rect x="580" y="280" width="55" height="45" rx="3" fill="#87CEEB" opacity=".8"/>
  <rect x="650" y="280" width="55" height="45" rx="3" fill="#87CEEB" opacity=".8"/>
  <rect x="560" y="340" width="65" height="90" rx="3" fill="#8B6914"/>
  <g fill="#2D6A4F">
    <ellipse cx="460" cy="380" rx="28" ry="42"/><rect x="454" y="420" width="12" height="22" fill="#8B6914"/>
    <ellipse cx="780" cy="370" rx="24" ry="38"/>
  </g>
  <rect width="800" height="530" fill="url(#ov)"/>
  <rect x="0" y="0" width="130" height="38" fill="#1A3D2B" opacity=".9"/>
  <text x="16" y="25" font-family="Arial" font-size="14" font-weight="700" fill="white">Nhà Bán</text>
  <text x="30" y="460" font-family="Arial" font-size="22" font-weight="800" fill="white">Villa A5 – 428 m²</text>
  <text x="30" y="490" font-family="Arial" font-size="14" fill="rgba(255,255,255,0.85)">📍 Khu A · Nam Ban Villas</text>
  <text x="30" y="515" font-family="Arial" font-size="13" fill="rgba(255,255,255,0.7)">3 phòng ngủ · Vườn thảo mộc 200m²</text>
</svg>
